<svg xmlns="http://www.w3.org/2000/svg" width="32" height="32" viewBox="0 0 32 32">
  <!-- Earth background -->
  <circle cx="16" cy="16" r="15" fill="#1976D2" stroke="#0D47A1" stroke-width="1"/>
  
  <!-- Continents -->
  <path d="M6 14 Q8 10 12 11 L16 9 Q20 11 22 14 Q24 18 20 20 L16 22 Q12 20 10 16 Z" fill="#2E7D32"/>
  <path d="M8 8 Q12 6 16 8 L20 6 Q22 9 20 12 L16 14 Q12 12 10 10 Z" fill="#388E3C"/>
  <path d="M4 22 Q8 20 12 24 L16 26 Q20 24 24 26 Q22 28 18 26 L14 28 Q8 26 4 22 Z" fill="#2E7D32"/>
  
  <!-- Clouds/atmosphere -->
  <circle cx="16" cy="16" r="14" fill="none" stroke="rgba(255,255,255,0.2)" stroke-width="2"/>
  
  <!-- Highlight -->
  <ellipse cx="12" cy="10" rx="3" ry="2" fill="rgba(255,255,255,0.3)"/>
</svg>
